<svg id="Layer_1" data-name="Layer 1" xmlns="http://www.w3.org/2000/svg" viewBox="0 0 508.73 274.33"><defs><style>.cls-1{fill:#fff;}</style></defs><title>dinosaurghost</title><path class="cls-1" d="M179.93,172.68c8.87,10.1,17.07,19.88,25.82,29.14a25.53,25.53,0,0,0,10.42,6.26c22.32,7.2,44.62,14.52,67.21,20.78,11.44,3.17,21.1,8.31,29.24,16.8A88,88,0,0,0,350.46,269c18.94,5.93,37.78,8.31,56.52-.52,16.79-7.91,27.91-21.5,35.81-37.66q25-51.18,49.06-102.82C498,114.92,503,101.31,508.23,87.8c.92-2.37.28-5.34.35-8-2.35,1.28-5.33,2-7,3.92C490.26,96.94,479,110.28,468,123.9c-9.59,11.93-18.23,24.61-30.29,34.39-17.07,13.84-36.26,13.72-49.11-1-8.33-9.57-15.65-19.91-20.63-31.72a42.88,42.88,0,0,0-3.5-6.6c-9.73-15-23.34-25.17-39.77-32-11.36-4.74-22.3-10.52-33.69-15.17-8.7-3.55-17.29-7.81-27.16-7.65-17,.28-34,.43-50.95.28a11.33,11.33,0,0,1-7.25-3.16C193.83,49,182.31,36.53,170.56,24.26a14.72,14.72,0,0,0-5.72-3.7c-13.42-4.48-26.92-8.74-40.39-13.07C109.45,2.67,95-2.18,78.26,1,56.07,5.33,33.35,6.87,10.84,9.48c-3.71.43-6.62,1.63-7,5.66C2.47,27.69,1.31,40.27,0,53.71c11.62-1.08,16,7.79,22,16.36L23.1,56.55l1.45-.44L33.14,70l1.38-.24a57.8,57.8,0,0,1,.08-7.24c.18-1.41.93-3.58,1.87-3.86,1.18-.35,3.13.56,4.22,1.53C44,63.11,47,66.31,51,70.34L49.92,59.93C60.17,58.44,60.4,69.35,67,73V62c7.46-1.15,9.78,5.9,15.15,8.65l.78-8.5,11.2,7.08L95,65.05c4.11.48,8,.7,11.68,1.52a5.07,5.07,0,0,1,3,3.27,3.84,3.84,0,0,1-1.94,3.26c-5.7,1.61-11.51,2.84-17.58,4.27l-.77-6.2c-3.88,4.49-6.23,10-12.75,8.83L76,73.74C72.29,83.21,64.2,84.29,55.68,85.82l1.87-10.63a44.48,44.48,0,0,0-8.05,9.91c-2.42,4-6.14,4.93-10.62,5.59l1.36-12c-5.77,5.23-7.17,13-15.24,16.12V82.38c-3,2.18-4.62,4.87-6.8,7C12.42,95,11.65,101,14.56,108.57c1.81,4.73,3.41,6.35,8.6,5.92,38.51-3.22,77.06-6,115.58-9.16,3.34-.27,5.16.61,6.73,3.55,4.48,8.37,9.25,16.58,13.92,24.85l11.88,21-1.24.89-25.42-29.11c-.26,1.79-.54,3.38-.71,5-.88,8.11-1.87,16.22-2.54,24.36-.28,3.36-1.61,5-4.94,5.75-5,1.18-9.8,3.58-14.85,4.32-8.63,1.26-12.67,5.7-12.65,14.35,0,3.31-.74,6.62-1.14,9.93l1.45.63a26.38,26.38,0,0,0,3.92-3.28c6.23-7.63,13.92-11.95,24.06-11.65,3.45.1,6.93-1,10.41-1.18,3.17-.15,4.77-1.69,5.78-4.52,1.35-3.78,3-7.46,4.47-11.19l1.31.44c-1.43,8.48-3,16.93-4.21,25.44-.41,2.86-1.51,4.33-4.29,5.27-8.2,2.78-16.24,6.05-24.46,8.75-3.55,1.16-5.11,3-5.38,6.71-.25,3.47-1.35,6.88-1.64,10.35-.17,2,.52,4.12.92,6.78,1.65-1,2.39-1.16,2.73-1.64,8.91-12.24,21.8-15.29,35.88-15.67,1.49,0,3-.59,4.46-.54,3.61.14,5.26-1.7,6.42-5C172.92,190.76,176.52,181.65,179.93,172.68Z"/><path d="M179.93,172.68c-3.41,9-7,18.08-10.3,27.3-1.16,3.26-2.81,5.1-6.42,5-1.48-.06-3,.5-4.46.54-14.08.39-27,3.44-35.88,15.67-.35.48-1.09.68-2.73,1.64-.39-2.66-1.09-4.76-.92-6.78.29-3.47,1.38-6.88,1.64-10.35.27-3.67,1.83-5.55,5.38-6.71,8.23-2.7,16.26-6,24.46-8.75,2.78-.94,3.88-2.41,4.29-5.27,1.23-8.5,2.78-17,4.21-25.44l-1.31-.44c-1.5,3.73-3.11,7.41-4.47,11.19-1,2.83-2.62,4.36-5.78,4.52-3.48.17-7,1.29-10.41,1.18-10.14-.3-17.83,4-24.06,11.65a26.38,26.38,0,0,1-3.92,3.28l-1.45-.63c.4-3.31,1.15-6.62,1.14-9.93,0-8.66,4-13.09,12.65-14.35,5-.74,9.83-3.14,14.85-4.32,3.33-.78,4.66-2.39,4.94-5.75.67-8.13,1.66-16.24,2.54-24.36.17-1.6.45-3.18.71-5L170,155.67l1.24-.89-11.88-21c-4.66-8.27-9.43-16.48-13.92-24.85-1.57-2.93-3.39-3.82-6.73-3.55-38.52,3.11-77.07,5.94-115.58,9.16-5.19.43-6.79-1.19-8.6-5.92C11.65,101,12.42,95,18.2,89.36c2.18-2.12,3.8-4.81,6.8-7V94.82c8.07-3.08,9.46-10.89,15.24-16.12l-1.36,12c4.47-.67,8.19-1.57,10.62-5.59a44.48,44.48,0,0,1,8.05-9.91L55.68,85.82C64.2,84.29,72.29,83.21,76,73.74l.6,6.25c6.52,1.14,8.87-4.34,12.75-8.83l.77,6.2c6.07-1.43,11.88-2.66,17.58-4.27a3.84,3.84,0,0,0,1.94-3.26,5.07,5.07,0,0,0-3-3.27c-3.72-.82-7.57-1-11.68-1.52l-.87,4.13L82.94,62.1l-.78,8.5C76.79,67.85,74.47,60.81,67,62V73c-6.61-3.66-6.83-14.57-17.08-13.08L51,70.34C47,66.31,44,63.11,40.7,60.21c-1.09-1-3-1.88-4.22-1.53-.95.28-1.69,2.45-1.87,3.86a57.8,57.8,0,0,0-.08,7.24L33.14,70l-8.58-13.9-1.45.44L22,70.07C16,61.5,11.62,52.63,0,53.71c1.31-13.45,2.47-26,3.8-38.57.43-4,3.33-5.23,7-5.66C33.35,6.87,56.07,5.33,78.26,1,95-2.18,109.45,2.67,124.46,7.49c13.47,4.33,27,8.59,40.39,13.07a14.72,14.72,0,0,1,5.72,3.7C182.31,36.53,193.83,49,205.67,61.2a11.33,11.33,0,0,0,7.25,3.16c17,.15,34,0,50.95-.28,9.87-.16,18.46,4.1,27.16,7.65,11.4,4.65,22.33,10.43,33.69,15.17,16.43,6.85,30,17,39.77,32a42.88,42.88,0,0,1,3.5,6.6c5,11.82,12.3,22.16,20.63,31.72,12.85,14.77,32,14.89,49.11,1,12.07-9.78,20.7-22.47,30.29-34.39,10.95-13.62,22.24-27,33.61-40.22,1.63-1.9,4.6-2.64,7-3.92-.08,2.69.56,5.67-.35,8C503,101.31,498,114.92,491.85,128q-24.07,51.63-49.06,102.82c-7.9,16.16-19,29.75-35.81,37.66-18.74,8.83-37.58,6.45-56.52.52a88,88,0,0,1-37.84-23.37c-8.14-8.48-17.8-13.62-29.24-16.8-22.59-6.26-44.89-13.58-67.21-20.78a25.53,25.53,0,0,1-10.42-6.26C197,192.55,188.79,182.77,179.93,172.68ZM105.54,25.35l-1.26-1.57c-.47,0-1.09-.2-1.4,0-5.43,3.94-10.32,3.08-15.13-1.26-.64-.58-2.5.2-4.29.41,4.59,5.81,10.78,8.71,15.71,7.07C101.56,29.24,103.44,27,105.54,25.35ZM86.08,14.55l-.53,2.67c3.86.94,7.69,2,11.6,2.69.75.12,1.79-1.53,2.69-2.37l-.46-1.78Z"/><path class="cls-1" d="M105.54,25.35c-2.11,1.61-4,3.89-6.36,4.68C94.25,31.66,88.06,28.76,83.47,23c1.78-.21,3.65-1,4.29-.41,4.81,4.35,9.7,5.21,15.13,1.26.31-.22.92,0,1.4,0Z"/><path class="cls-1" d="M86.08,14.55l13.29,1.21.46,1.78c-.9.84-1.94,2.49-2.69,2.37-3.91-.65-7.74-1.75-11.6-2.69Z"/></svg>