<svg id="Layer_1" data-name="Layer 1" xmlns="http://www.w3.org/2000/svg" viewBox="0 0 100 100"><defs><style>.cls-1{fill:#fff;}</style></defs><title>Artboard 1</title><path class="cls-1" d="M-50.92,79.26c8.87,10.1,17.07,19.88,25.82,29.14a25.53,25.53,0,0,0,10.42,6.26c22.32,7.2,44.62,14.52,67.21,20.78,11.44,3.17,21.1,8.31,29.24,16.8a88,88,0,0,0,37.84,23.37c18.94,5.93,37.78,8.31,56.52-.52,16.79-7.91,27.91-21.5,35.81-37.66q25-51.18,49.06-102.82c6.11-13.11,11.16-26.73,16.38-40.23.92-2.37.28-5.34.35-8-2.35,1.28-5.33,2-7,3.92-11.38,13.26-22.67,26.6-33.61,40.22-9.59,11.93-18.23,24.61-30.29,34.39-17.07,13.84-36.26,13.72-49.11-1-8.33-9.57-15.65-19.91-20.63-31.72a42.88,42.88,0,0,0-3.5-6.6c-9.73-15-23.34-25.17-39.77-32C82.51-11.26,71.57-17,60.18-21.68c-8.7-3.55-17.29-7.81-27.16-7.65-17,.28-34,.43-50.95.28a11.33,11.33,0,0,1-7.25-3.16C-37-44.39-48.54-56.88-60.29-69.16A14.72,14.72,0,0,0-66-72.85c-13.42-4.48-26.92-8.74-40.39-13.07-15-4.82-29.49-9.68-46.2-6.45-22.19,4.29-44.91,5.83-67.41,8.44-3.71.43-6.62,1.63-7,5.66-1.33,12.55-2.49,25.12-3.8,38.57,11.62-1.08,16,7.79,22,16.36l1.12-13.52,1.45-.44,8.58,13.9,1.38-.24a57.8,57.8,0,0,1,.08-7.24c.18-1.41.93-3.58,1.87-3.86,1.18-.35,3.13.56,4.22,1.53,3.27,2.91,6.28,6.11,10.34,10.13l-1.12-10.41c10.25-1.49,10.48,9.42,17.08,13.08V-31.46c7.46-1.15,9.78,5.9,15.15,8.65l.78-8.5,11.2,7.08.87-4.13c4.11.48,8,.7,11.68,1.52a5.07,5.07,0,0,1,3,3.27,3.84,3.84,0,0,1-1.94,3.26c-5.7,1.61-11.51,2.84-17.58,4.27l-.77-6.2c-3.88,4.49-6.23,10-12.75,8.83l-.6-6.25c-3.72,9.46-11.82,10.55-20.34,12.07l1.87-10.63a44.48,44.48,0,0,0-8.05,9.91c-2.42,4-6.14,4.93-10.62,5.59l1.36-12c-5.77,5.23-7.17,13-15.24,16.12V-11c-3,2.18-4.62,4.87-6.8,7-5.79,5.64-6.55,11.6-3.64,19.21,1.81,4.73,3.41,6.35,8.6,5.92,38.51-3.22,77.06-6,115.58-9.16,3.34-.27,5.16.61,6.73,3.55C-80.9,23.84-76.13,32-71.47,40.32l11.88,21-1.24.89L-86.24,33.15c-.26,1.79-.54,3.38-.71,5-.88,8.11-1.87,16.22-2.54,24.36-.28,3.36-1.61,5-4.94,5.75-5,1.18-9.8,3.58-14.85,4.32-8.63,1.26-12.67,5.7-12.65,14.35,0,3.31-.74,6.62-1.14,9.93l1.45.63a26.38,26.38,0,0,0,3.92-3.28c6.23-7.63,13.92-11.95,24.06-11.65,3.45.1,6.93-1,10.41-1.18,3.17-.15,4.77-1.69,5.78-4.52,1.35-3.78,3-7.46,4.47-11.19l1.31.44c-1.43,8.48-3,16.93-4.21,25.44-.41,2.86-1.51,4.33-4.29,5.27-8.2,2.78-16.24,6.05-24.46,8.75-3.55,1.16-5.11,3-5.38,6.71-.25,3.47-1.35,6.88-1.64,10.35-.17,2,.52,4.12.92,6.78,1.65-1,2.39-1.16,2.73-1.64,8.91-12.24,21.8-15.29,35.88-15.67,1.49,0,3-.59,4.46-.54,3.61.14,5.26-1.7,6.42-5C-57.93,97.35-54.33,88.24-50.92,79.26Z"/><path d="M-50.92,79.26c-3.41,9-7,18.08-10.3,27.3-1.16,3.26-2.81,5.1-6.42,5-1.48-.06-3,.5-4.46.54-14.08.39-27,3.44-35.88,15.67-.35.48-1.09.68-2.73,1.64-.39-2.66-1.09-4.76-.92-6.78.29-3.47,1.38-6.88,1.64-10.35.27-3.67,1.83-5.55,5.38-6.71,8.23-2.7,16.26-6,24.46-8.75,2.78-.94,3.88-2.41,4.29-5.27,1.23-8.5,2.78-17,4.21-25.44L-73,65.65c-1.5,3.73-3.11,7.41-4.47,11.19-1,2.83-2.62,4.36-5.78,4.52-3.48.17-7,1.29-10.41,1.18-10.14-.3-17.83,4-24.06,11.65a26.38,26.38,0,0,1-3.92,3.28l-1.45-.63c.4-3.31,1.15-6.62,1.14-9.93,0-8.66,4-13.09,12.65-14.35,5-.74,9.83-3.14,14.85-4.32,3.33-.78,4.66-2.39,4.94-5.75.67-8.13,1.66-16.24,2.54-24.36.17-1.6.45-3.18.71-5l25.42,29.11,1.24-.89-11.88-21C-76.13,32-80.9,23.84-85.38,15.47c-1.57-2.93-3.39-3.82-6.73-3.55-38.52,3.11-77.07,5.94-115.58,9.16-5.19.43-6.79-1.19-8.6-5.92C-219.2,7.55-218.43,1.59-212.65-4c2.18-2.12,3.8-4.81,6.8-7V1.4c8.07-3.08,9.46-10.89,15.24-16.12l-1.36,12c4.47-.67,8.19-1.57,10.62-5.59a44.48,44.48,0,0,1,8.05-9.91L-175.17-7.6c8.52-1.53,16.61-2.61,20.34-12.07l.6,6.25c6.52,1.14,8.87-4.34,12.75-8.83l.77,6.2c6.07-1.43,11.88-2.66,17.58-4.27a3.84,3.84,0,0,0,1.94-3.26,5.07,5.07,0,0,0-3-3.27c-3.72-.82-7.57-1-11.68-1.52l-.87,4.13-11.2-7.08-.78,8.5c-5.37-2.75-7.69-9.8-15.15-8.65V-20.4c-6.61-3.66-6.83-14.57-17.08-13.08l1.12,10.41c-4.06-4-7.07-7.22-10.34-10.13-1.09-1-3-1.88-4.22-1.53-.95.28-1.69,2.45-1.87,3.86a57.8,57.8,0,0,0-.08,7.24l-1.38.24-8.58-13.9-1.45.44-1.12,13.52c-6-8.57-10.37-17.44-22-16.36,1.31-13.45,2.47-26,3.8-38.57.43-4,3.33-5.23,7-5.66,22.5-2.61,45.23-4.15,67.41-8.44,16.71-3.23,31.19,1.63,46.2,6.45,13.47,4.33,27,8.59,40.39,13.07a14.72,14.72,0,0,1,5.72,3.7C-48.54-56.88-37-44.39-25.18-32.21A11.33,11.33,0,0,0-17.93-29c17,.15,34,0,50.95-.28,9.87-.16,18.46,4.1,27.16,7.65C71.57-17,82.51-11.26,93.87-6.51c16.43,6.85,30,17,39.77,32a42.88,42.88,0,0,1,3.5,6.6c5,11.82,12.3,22.16,20.63,31.72,12.85,14.77,32,14.89,49.11,1,12.07-9.78,20.7-22.47,30.29-34.39,10.95-13.62,22.24-27,33.61-40.22,1.63-1.9,4.6-2.64,7-3.92-.08,2.69.56,5.67-.35,8C272.16,7.9,267.11,21.51,261,34.62q-24.07,51.63-49.06,102.82c-7.9,16.16-19,29.75-35.81,37.66-18.74,8.83-37.58,6.45-56.52.52a88,88,0,0,1-37.84-23.37c-8.14-8.48-17.8-13.62-29.24-16.8-22.59-6.26-44.89-13.58-67.21-20.78A25.53,25.53,0,0,1-25.1,108.4C-33.85,99.14-42.06,89.36-50.92,79.26ZM-125.31-68.07l-1.26-1.57c-.47,0-1.09-.2-1.4,0-5.43,3.94-10.32,3.08-15.13-1.26-.64-.58-2.5.2-4.29.41,4.59,5.81,10.78,8.71,15.71,7.07C-129.29-64.17-127.41-66.46-125.31-68.07Zm-19.46-10.8-.53,2.67c3.86.94,7.69,2,11.6,2.69.75.12,1.79-1.53,2.69-2.37l-.46-1.78Z"/></svg>